HIERARCHY
ROOT Hips
{
	OFFSET 0.000000 88.474243 0.000000
	CHANNELS 6 Xposition Yposition Zposition Zrotation Yrotation Xrotation 
	JOINT Hips_Spine
	{
		OFFSET 0.000000 0.000000 0.000000
		CHANNELS 3 Zrotation Yrotation Xrotation
		JOINT Spine
		{
			OFFSET 0.005100 8.711998 -0.691000
			CHANNELS 3 Zrotation Yrotation Xrotation
			JOINT Spine1
			{
				OFFSET -0.009200 8.660301 -1.275000
				CHANNELS 3 Zrotation Yrotation Xrotation
				JOINT Spine2
				{
					OFFSET 0.006300 9.852501 -1.857000
					CHANNELS 3 Zrotation Yrotation Xrotation
					JOINT Spine2_Neck
					{
						OFFSET 0.000000 0.000000 0.000000
						CHANNELS 3 Zrotation Yrotation Xrotation
						JOINT Neck
						{
							OFFSET 0.016300 11.420799 -0.263300
							CHANNELS 3 Zrotation Yrotation Xrotation
							End Site #name: Head
							{
								OFFSET -0.019200 9.262405 2.362500
							}
						}
					}
					JOINT Spine2_LeftShoulder
					{
						OFFSET 0.000000 0.000000 0.000000
						CHANNELS 3 Zrotation Yrotation Xrotation
						JOINT LeftShoulder
						{
							OFFSET 5.616900 6.732201 -0.345700
							CHANNELS 3 Zrotation Yrotation Xrotation
							JOINT LeftArm
							{
								OFFSET 10.664888 -0.183372 -2.440700
								CHANNELS 3 Zrotation Yrotation Xrotation
								JOINT LeftForeArm
								{
									OFFSET 27.459126 0.000000 0.000000
									CHANNELS 3 Zrotation Yrotation Xrotation
									End Site #name: LeftHand
									{
										OFFSET 21.306858 0.000000 0.000000
									}
								}
							}
						}
					}
					JOINT Spine2_RightShoulder
					{
						OFFSET 0.000000 0.000000 0.000000
						CHANNELS 3 Zrotation Yrotation Xrotation
						JOINT RightShoulder
						{
							OFFSET -5.580300 6.737503 -0.344400
							CHANNELS 3 Zrotation Yrotation Xrotation
							JOINT RightArm
							{
								OFFSET -10.679335 -0.188484 -2.383900
								CHANNELS 3 Zrotation Yrotation Xrotation
								JOINT RightForeArm
								{
									OFFSET -27.503529 0.000000 0.000000
									CHANNELS 3 Zrotation Yrotation Xrotation
									End Site #name: RightHand
									{
										OFFSET -21.306808 0.000000 0.000000
									}
								}
							}
						}
					}
				}
			}
		}
	}
	JOINT Hips_LeftUpLeg
	{
		OFFSET 0.000000 0.000000 0.000000
		CHANNELS 3 Zrotation Yrotation Xrotation
		JOINT LeftUpLeg
		{
			OFFSET 6.857700 -6.739601 0.312100
			CHANNELS 3 Zrotation Yrotation Xrotation
			JOINT LeftLeg
			{
				OFFSET -0.367590 -34.731552 -4.572400
				CHANNELS 3 Zrotation Yrotation Xrotation
				End Site #name: LeftFoot
				{
					OFFSET 0.367590 -34.656704 -6.067400
				}
			}
		}
	}
	JOINT Hips_RightUpLeg
	{
		OFFSET 0.000000 0.000000 0.000000
		CHANNELS 3 Zrotation Yrotation Xrotation
		JOINT RightUpLeg
		{
			OFFSET -6.876100 -6.733299 0.301000
			CHANNELS 3 Zrotation Yrotation Xrotation
			JOINT RightLeg
			{
				OFFSET 0.347353 -34.795158 -4.515900
				CHANNELS 3 Zrotation Yrotation Xrotation
				End Site #name: RightFoot
				{
					OFFSET -0.347353 -34.589367 -6.070300
				}
			}
		}
	}
}
MOTION
Frames: 6
Frame Time: 0.041667
-5.442208 -1.702872 4.404596 -1.209251 21.171625 -4.393285 0.000000 0.000000 0.000000 9.424948 -2.322708 -1.141073 4.856865 -1.734535 0.092926 0.000000 0.000000 0.000000 4.377833 -1.395240 -0.265357 1.586362 -0.844272 0.353842 4.634718 -1.955075 0.012434 -21.939761 2.061264 -1.067558 -60.264261 6.180561 35.744726 -0.431571 -23.770628 2.161629 4.204799 -1.440816 0.291383 18.506945 10.455531 2.696885 55.191172 4.803902 10.156298 0.779938 43.747716 -0.104049 -0.000000 -0.000000 -0.000000 1.122753 10.566037 -8.835810 4.213081 10.071272 24.410827 0.000000 -0.000000 0.000000 6.863528 -5.456206 -26.063664 -0.169879 -2.355035 18.632912 
-5.926401 -1.927220 5.343461 -1.238334 21.071762 -4.274118 0.000000 0.000000 0.000000 9.545066 -2.382394 -0.845154 4.948425 -1.773771 0.178153 0.000000 0.000000 0.000000 4.460569 -1.407768 -0.251740 1.742967 -0.686996 0.503523 4.748538 -1.978066 0.103485 -21.853922 2.153383 -1.126610 -60.490481 6.443890 35.556822 -0.436214 -24.239525 2.178372 4.299377 -1.473102 0.314898 18.608096 10.580856 2.763484 54.846593 4.325305 10.296584 0.762093 43.775842 -0.111066 -0.000000 -0.000000 -0.000000 2.103529 10.775766 -8.424694 3.100142 8.765026 24.093277 0.000000 -0.000000 0.000000 7.454793 -5.420224 -26.341090 -0.383243 -3.146180 19.431006 
-6.342268 -2.131962 6.254364 -1.172325 20.796027 -4.165291 0.000000 0.000000 0.000000 9.598954 -2.354561 -0.439572 5.020855 -1.798697 0.293253 0.000000 0.000000 0.000000 4.529342 -1.408333 -0.217242 1.871409 -0.579687 0.699383 4.842346 -1.988417 0.210520 -21.801059 2.250622 -1.214653 -60.661233 6.671651 35.395520 -0.438652 -24.728666 2.198618 4.375681 -1.489386 0.374534 18.757075 10.697555 2.835956 54.508411 3.974363 10.408939 0.746274 43.777170 -0.119395 -0.000000 -0.000000 -0.000000 3.088675 10.960232 -8.249202 2.852391 7.049599 26.302826 0.000000 -0.000000 0.000000 7.925403 -5.443596 -26.464923 -0.543734 -3.667989 20.318254 
-6.674245 -2.327754 7.108980 -1.051500 20.255537 -4.096109 0.000000 0.000000 0.000000 9.598262 -2.296898 -0.104631 5.071308 -1.809781 0.423194 0.000000 0.000000 0.000000 4.584207 -1.396581 -0.161533 1.973542 -0.608341 1.027787 4.902492 -1.996295 0.329928 -21.766037 2.347726 -1.300402 -60.788653 6.881302 35.223070 -0.443149 -25.235091 2.220434 4.436706 -1.486451 0.481884 18.937067 10.773472 2.913564 54.178166 3.800405 10.500743 0.733298 43.861432 -0.123504 -0.000000 -0.000000 -0.000000 3.937927 10.961393 -8.210973 3.254819 5.415520 30.461308 0.000000 -0.000000 0.000000 8.276235 -5.535176 -26.474312 -0.704923 -4.135182 21.193474 
-6.917552 -2.525676 7.877069 -0.911587 19.588681 -4.041942 0.000000 0.000000 0.000000 9.561923 -2.209114 0.359192 5.115637 -1.807091 0.544994 0.000000 0.000000 0.000000 4.633685 -1.376821 -0.096835 2.057496 -0.640277 1.346941 4.956717 -1.990521 0.461683 -21.707046 2.416535 -1.370995 -60.894053 7.026280 35.088383 -0.449783 -25.715849 2.242042 4.492811 -1.468491 0.593583 19.138686 10.810388 3.001005 53.840050 3.787136 10.548632 0.725245 44.115079 -0.128411 -0.000000 -0.000000 -0.000000 4.607408 10.674543 -8.427460 3.539373 3.848088 34.186740 0.000000 -0.000000 0.000000 8.519859 -5.658510 -26.394481 -0.907180 -4.639596 21.927845 
-7.085316 -2.717933 8.563254 -0.729883 18.858035 -4.005162 0.000000 -0.000000 0.000000 9.516745 -2.197409 0.959943 5.164070 -1.791813 0.652376 0.000000 0.000000 0.000000 4.684601 -1.355219 -0.033550 2.107413 -0.675654 1.656834 5.012455 -1.978026 0.596891 -21.612957 2.436965 -1.427918 -60.947587 7.115001 35.005454 -0.455682 -26.171172 2.265340 4.549246 -1.441368 0.701113 19.330288 10.814123 3.079317 53.504978 3.868535 10.561758 0.722208 44.575227 -0.131811 -0.000000 -0.000000 -0.000000 5.001193 10.128200 -8.804876 3.996249 2.944661 37.250706 0.000000 -0.000000 0.000000 8.619338 -5.764843 -26.255579 -1.111292 -5.142868 22.431744 
